<svg width="11" height="11" viewBox="0 0 11 11" fill="none" xmlns="http://www.w3.org/2000/svg">
<path id="Github" d="M5.49966 0.0111753C2.46247 0.0111753 0 2.53592 0 5.6499C0 8.14151 1.57565 10.2546 3.76108 11.0003C4.03606 11.0525 4.13712 10.8777 4.13712 10.729C4.13712 10.5944 4.13162 10.1503 4.12955 9.67948C2.59928 10.0206 2.27686 9.01411 2.27686 9.01411C2.02662 8.36213 1.6664 8.18874 1.6664 8.18874C1.1673 7.83843 1.70421 7.84619 1.70421 7.84619C2.25623 7.88566 2.54703 8.42698 2.54703 8.42698C3.03787 9.289 3.83395 9.03948 4.14743 8.89569C4.19693 8.53129 4.33923 8.28248 4.49666 8.14151C3.27505 7.99914 1.99088 7.51562 1.99088 5.35457C1.99088 4.73925 2.20605 4.23599 2.55734 3.84128C2.50028 3.6989 2.31192 3.12587 2.61027 2.34913C2.61027 2.34913 3.07225 2.19759 4.12337 2.9271C4.56197 2.80235 5.03219 2.73961 5.49966 2.7375C5.96713 2.73961 6.43804 2.80235 6.87732 2.9271C7.92707 2.19759 8.38835 2.34913 8.38835 2.34913C8.6874 3.12587 8.49972 3.69961 8.44266 3.84128C8.79533 4.23599 9.00844 4.73925 9.00844 5.35457C9.00844 7.52055 7.72152 7.99702 6.49716 8.13658C6.69446 8.31138 6.87045 8.65464 6.87045 9.18045C6.87045 9.93463 6.86426 10.5422 6.86426 10.7276C6.86426 10.8777 6.96325 11.0532 7.24236 10.9982C9.42641 10.2518 11 8.1387 11 5.64849C11 2.53451 8.53753 0.00976562 5.50034 0.00976562L5.49966 0.0111753Z" fill="#CAC4D0"/>
</svg>
