<svg width="31" height="12" viewBox="0 0 31 12" fill="none" xmlns="http://www.w3.org/2000/svg">
<g clip-path="url(#clip0_433_1868)">
<path d="M16.4169 4.087L17.8442 3.99757C17.8767 4.22377 17.9364 4.39211 18.0341 4.51311C18.1915 4.70249 18.4086 4.79718 18.6962 4.79718C18.9078 4.79718 19.0761 4.74983 19.19 4.64988C19.2986 4.57097 19.3637 4.44472 19.3637 4.31321C19.3637 4.18695 19.304 4.06596 19.2009 3.98705C19.0924 3.89236 18.8373 3.79767 18.4357 3.7135C17.779 3.57146 17.3069 3.38208 17.0301 3.14009C16.7534 2.91389 16.596 2.58247 16.6068 2.23001C16.6068 1.98802 16.6828 1.74604 16.8239 1.54613C16.9867 1.31993 17.2092 1.14107 17.4751 1.04112C17.7628 0.920122 18.1644 0.856995 18.6691 0.856995C19.2877 0.856995 19.7599 0.967467 20.0855 1.19367C20.4111 1.41462 20.6065 1.77234 20.6662 2.26157L19.2552 2.34048C19.2172 2.13006 19.1412 1.9775 19.0164 1.87755C18.8916 1.7776 18.7288 1.73025 18.5171 1.73025C18.3434 1.73025 18.2132 1.76708 18.1264 1.83547C18.045 1.89859 17.9907 1.99328 17.9961 2.09849C17.9961 2.1774 18.0395 2.25105 18.1047 2.2984C18.1752 2.36152 18.3434 2.41939 18.6094 2.472C19.266 2.60877 19.7327 2.74555 20.0204 2.88758C20.308 3.02962 20.5142 3.20322 20.639 3.40838C20.7693 3.61881 20.8344 3.86079 20.829 4.10804C20.829 4.40264 20.7421 4.69723 20.5685 4.94448C20.3894 5.20225 20.1398 5.40215 19.8467 5.52314C19.5374 5.65466 19.1466 5.72304 18.6799 5.72304C17.855 5.72304 17.2852 5.57049 16.965 5.26011C16.6448 4.94974 16.4549 4.56045 16.4169 4.087ZM1.27036 5.64413V0.941164H3.77217C4.23346 0.941164 4.59164 0.977988 4.83585 1.0569C5.07463 1.13055 5.28628 1.2831 5.42738 1.48827C5.58476 1.71447 5.66074 1.9775 5.65531 2.25105C5.67159 2.71398 5.42738 3.15587 5.00951 3.38734C4.8467 3.47677 4.66761 3.5399 4.4831 3.57146C4.61877 3.60829 4.75444 3.67141 4.87384 3.74506C4.96609 3.81871 5.04207 3.90288 5.11262 3.99231C5.19402 4.08174 5.26457 4.18169 5.32427 4.2869L6.05148 5.6494H4.34742L3.54424 4.20273C3.44113 4.01861 3.3543 3.89762 3.2729 3.83975C3.16436 3.7661 3.03411 3.72928 2.90386 3.72928H2.77362V5.63887H1.27036V5.64413ZM2.77362 2.8455H3.40857C3.54424 2.83498 3.67449 2.81394 3.80473 2.78237C3.90242 2.76659 3.98925 2.71398 4.04894 2.63508C4.19547 2.44569 4.17376 2.1774 3.99468 2.01433C3.89699 1.93542 3.70705 1.89333 3.4357 1.89333H2.77362V2.8455ZM0.928467 9.67375L2.35575 9.58432C2.38831 9.81052 2.448 9.97886 2.54569 10.0999C2.69764 10.2892 2.92015 10.3892 3.20777 10.3892C3.41942 10.3892 3.58766 10.3418 3.70162 10.2419C3.81016 10.1577 3.87528 10.0367 3.87528 9.90522C3.87528 9.77896 3.81559 9.65797 3.71248 9.57906C3.60394 9.48437 3.34887 9.38968 2.94185 9.30551C2.2852 9.16347 1.81305 8.97409 1.53628 8.7321C1.25951 8.5059 1.10213 8.17448 1.11298 7.82202C1.11298 7.58003 1.18896 7.33805 1.33006 7.13814C1.49287 6.91194 1.71537 6.73308 1.98129 6.63313C2.26892 6.51213 2.67051 6.44901 3.17521 6.44901C3.79388 6.44901 4.26602 6.55948 4.59164 6.78568C4.91725 7.01189 5.10719 7.36435 5.16689 7.85358L3.75589 7.93249C3.7179 7.72207 3.64193 7.56951 3.51711 7.46956C3.39771 7.36961 3.22948 7.32226 3.01783 7.32753C2.84417 7.32753 2.71392 7.36435 2.62709 7.438C2.54026 7.50112 2.49142 7.59581 2.49685 7.70103C2.49685 7.77994 2.54026 7.85358 2.60538 7.90093C2.67593 7.96406 2.84417 8.02192 3.11009 8.07453C3.76674 8.21131 4.23346 8.34808 4.52109 8.49012C4.80871 8.63215 5.01494 8.80575 5.13975 9.01091C5.27 9.22134 5.33512 9.46333 5.33512 9.70531C5.33512 9.99991 5.24287 10.2892 5.07463 10.5365C4.89554 10.7943 4.64591 10.9942 4.35285 11.1152C4.04352 11.2467 3.65278 11.3151 3.18606 11.3151C2.36117 11.3151 1.79135 11.1625 1.47116 10.8521C1.15097 10.5365 0.971882 10.1472 0.928467 9.67375Z" fill="#CAC4D0"/>
<path d="M7.71792 9.39572L9.03123 9.77974C8.96068 10.1006 8.81416 10.4058 8.61336 10.674C8.42884 10.9108 8.18463 11.0949 7.90786 11.2159C7.62566 11.3369 7.26748 11.4 6.83333 11.4C6.30692 11.4 5.87277 11.3264 5.54173 11.1791C5.20526 11.0318 4.91763 10.7687 4.67342 10.3952C4.42921 10.0217 4.30981 9.54301 4.30981 8.95909C4.30981 8.18052 4.52146 7.58081 4.95019 7.16523C5.37892 6.74964 5.98131 6.53922 6.76278 6.53922C7.37602 6.53922 7.85359 6.66021 8.20634 6.89694C8.55366 7.13892 8.81416 7.50716 8.98782 8.00166L7.66365 8.28573C7.63109 8.17526 7.58225 8.06479 7.51712 7.9701C7.43572 7.85962 7.33261 7.77545 7.20779 7.71233C7.08297 7.6492 6.94187 7.6229 6.80077 7.6229C6.45887 7.6229 6.19838 7.75441 6.01929 8.0227C5.88362 8.21734 5.81307 8.52772 5.81307 8.94857C5.81307 9.46937 5.89447 9.82709 6.05728 10.0217C6.22009 10.2164 6.44802 10.3111 6.7465 10.3111C7.03413 10.3111 7.2512 10.2322 7.39773 10.0796C7.54426 9.91652 7.6528 9.69031 7.71792 9.39572ZM10.7841 6.61812H12.282V8.26469H13.9209V6.61812H15.4296V11.3211H13.9209V9.41676H12.282V11.3211H10.7841V6.61812Z" fill="#CAC4D0"/>
<path d="M15.2231 8.96962C15.2231 8.20157 15.4456 7.60187 15.8852 7.17576C16.3248 6.74965 16.9435 6.53397 17.7304 6.53397C18.539 6.53397 19.1577 6.74439 19.5972 7.16524C20.0368 7.58608 20.2539 8.17527 20.2539 8.9328C20.2539 9.48516 20.1562 9.93231 19.9663 10.2848C19.7818 10.632 19.4941 10.916 19.1414 11.1054C18.7778 11.3001 18.3273 11.4 17.7901 11.4C17.242 11.4 16.7915 11.3158 16.4333 11.1475C16.0643 10.9686 15.7604 10.6898 15.5596 10.3479C15.3371 9.97965 15.2231 9.52198 15.2231 8.96962ZM16.721 8.97488C16.721 9.44833 16.8132 9.79027 16.9923 10.0007C17.1714 10.2059 17.421 10.3111 17.7358 10.3111C18.056 10.3111 18.3056 10.2111 18.4847 10.006C18.6638 9.80079 18.7506 9.43781 18.7506 8.91175C18.7506 8.46986 18.6584 8.14371 18.4739 7.94381C18.2894 7.73864 18.0397 7.63869 17.725 7.63869C17.4482 7.62817 17.1823 7.7439 16.9977 7.94907C16.8132 8.15423 16.721 8.49617 16.721 8.97488ZM21.7897 8.96962C21.7897 8.20157 22.0122 7.60187 22.4518 7.17576C22.8914 6.74965 23.51 6.53397 24.297 6.53397C25.1056 6.53397 25.7297 6.74439 26.1638 7.16524C26.598 7.58608 26.8205 8.17527 26.8205 8.9328C26.8205 9.48516 26.7228 9.93231 26.5328 10.2848C26.3483 10.632 26.0607 10.916 25.708 11.1054C25.3443 11.3001 24.8939 11.4 24.3566 11.4C23.8085 11.4 23.3581 11.3158 22.9999 11.1475C22.6309 10.9686 22.327 10.6898 22.1262 10.3479C21.9037 9.97965 21.7897 9.52198 21.7897 8.96962ZM23.2875 8.97488C23.2875 9.44833 23.3798 9.79027 23.5589 10.0007C23.738 10.2059 23.9876 10.3111 24.3024 10.3111C24.6226 10.3111 24.8722 10.2111 25.0513 10.006C25.2304 9.80079 25.3172 9.43781 25.3172 8.91175C25.3172 8.46986 25.225 8.14371 25.0404 7.94381C24.8559 7.73864 24.6063 7.63869 24.2915 7.63869C24.0148 7.62817 23.7434 7.7439 23.5643 7.94907C23.3798 8.15423 23.2875 8.49617 23.2875 8.97488Z" fill="#CAC4D0"/>
<path d="M26.7293 6.50943H28.2271V10.0551H30.5661V11.2124H26.7239V6.50943H26.7293Z" fill="#CAC4D0"/>
<path d="M25.0123 6.34672C26.5203 5.24515 26.9853 3.37782 26.051 2.17591C25.1166 0.974005 23.1367 0.892665 21.6287 1.99423C20.1207 3.0958 19.6557 4.96314 20.59 6.16504C21.5244 7.36695 23.5043 7.44829 25.0123 6.34672Z" fill="white"/>
<mask id="mask0_433_1868" style="mask-type:luminance" maskUnits="userSpaceOnUse" x="20" y="1" width="7" height="7">
<path d="M25.0123 6.34672C26.5203 5.24515 26.9853 3.37782 26.051 2.17591C25.1166 0.974005 23.1367 0.892665 21.6287 1.99423C20.1207 3.0958 19.6557 4.96314 20.59 6.16504C21.5244 7.36695 23.5043 7.44829 25.0123 6.34672Z" fill="white"/>
</mask>
<g mask="url(#mask0_433_1868)">
<path d="M16.7441 3.5744L24.5368 -2.11803L29.9291 4.81822L22.1364 10.5107L16.7441 3.5744Z" fill="white"/>
<mask id="mask1_433_1868" style="mask-type:luminance" maskUnits="userSpaceOnUse" x="16" y="-3" width="14" height="14">
<path d="M16.7441 3.5744L24.5368 -2.11803L29.9291 4.81822L22.1364 10.5107L16.7441 3.5744Z" fill="white"/>
</mask>
<g mask="url(#mask1_433_1868)">
<path d="M25.0123 6.34672C26.5203 5.24515 26.9853 3.37782 26.051 2.17591C25.1166 0.974005 23.1367 0.892665 21.6287 1.99423C20.1207 3.0958 19.6557 4.96314 20.59 6.16504C21.5244 7.36695 23.5043 7.44829 25.0123 6.34672Z" fill="white"/>
<mask id="mask2_433_1868" style="mask-type:luminance" maskUnits="userSpaceOnUse" x="20" y="1" width="7" height="7">
<path d="M25.0123 6.34672C26.5203 5.24515 26.9853 3.37782 26.051 2.17591C25.1166 0.974005 23.1367 0.892665 21.6287 1.99423C20.1207 3.0958 19.6557 4.96314 20.59 6.16504C21.5244 7.36695 23.5043 7.44829 25.0123 6.34672Z" fill="white"/>
</mask>
<g mask="url(#mask2_433_1868)">
<path d="M18.9141 4.03754L24.3707 0.0516614L27.7576 4.40841L22.3009 8.39428L18.9141 4.03754Z" fill="#211F26"/>
<mask id="mask3_433_1868" style="mask-type:luminance" maskUnits="userSpaceOnUse" x="18" y="0" width="10" height="9">
<path d="M18.9141 4.03754L24.3707 0.0516614L27.7576 4.40841L22.3009 8.39428L18.9141 4.03754Z" fill="white"/>
</mask>
<g mask="url(#mask3_433_1868)">
<path d="M25.0123 6.34672C26.5203 5.24515 26.9853 3.37782 26.051 2.17591C25.1166 0.974005 23.1367 0.892665 21.6287 1.99423C20.1207 3.0958 19.6557 4.96314 20.59 6.16504C21.5244 7.36695 23.5043 7.44829 25.0123 6.34672Z" fill="white"/>
</g>
<path d="M18.9141 4.03754L24.3707 0.0516614L27.7576 4.40841L22.3009 8.39428L18.9141 4.03754Z" fill="white"/>
<mask id="mask4_433_1868" style="mask-type:luminance" maskUnits="userSpaceOnUse" x="18" y="0" width="10" height="9">
<path d="M18.9141 4.03754L24.3707 0.0516614L27.7576 4.40841L22.3009 8.39428L18.9141 4.03754Z" fill="white"/>
</mask>
<g mask="url(#mask4_433_1868)">
<path d="M25.0123 6.34672C26.5203 5.24515 26.9853 3.37782 26.051 2.17591C25.1166 0.974005 23.1367 0.892666 21.6287 1.99423C20.1207 3.0958 19.6557 4.96314 20.59 6.16504C21.5244 7.36695 23.5043 7.44829 25.0123 6.34672Z" fill="#211F26"/>
</g>
</g>
<path d="M21.7952 3.82476L22.3379 3.45652L23.0054 4.37713C23.1194 4.52442 23.2062 4.68224 23.2714 4.85584C23.3093 4.98735 23.2985 5.12939 23.2442 5.25564C23.1737 5.41346 23.0597 5.54498 22.9078 5.63967C22.7287 5.76066 22.5767 5.82905 22.4465 5.85009C22.3216 5.87113 22.1914 5.85009 22.072 5.79749C21.9418 5.73436 21.8278 5.64493 21.741 5.52919L22.2077 5.10835C22.2457 5.16621 22.2945 5.21882 22.3488 5.2609C22.3868 5.28721 22.4302 5.30299 22.479 5.30299C22.517 5.30299 22.555 5.28721 22.5821 5.26617C22.6364 5.2346 22.6744 5.17147 22.669 5.10835C22.6527 5.01892 22.6147 4.92949 22.555 4.8611L21.7952 3.82476ZM23.4233 4.40869L23.9172 4.02993C23.9714 4.09305 24.042 4.1404 24.118 4.1667C24.2265 4.19826 24.3405 4.17722 24.4327 4.10883C24.4978 4.06675 24.5521 4.00888 24.5738 3.93524C24.6064 3.84054 24.5521 3.73533 24.4544 3.70377C24.4381 3.69851 24.4219 3.69325 24.4056 3.69325C24.3405 3.68799 24.2265 3.71429 24.0583 3.78268C23.7815 3.89315 23.5644 3.93523 23.4016 3.91945C23.2442 3.90367 23.0977 3.82476 23.0109 3.69325C22.9457 3.60382 22.9132 3.49861 22.9078 3.39339C22.9078 3.2724 22.9403 3.15141 23.0109 3.05146C23.114 2.90942 23.2388 2.78843 23.3907 2.69373C23.6187 2.54118 23.8195 2.46753 23.9931 2.46753C24.1668 2.46753 24.3296 2.54644 24.4816 2.70952L23.9931 3.08302C23.8955 2.96203 23.7109 2.93572 23.5861 3.03041L23.5698 3.04619C23.5156 3.07776 23.4776 3.1251 23.4559 3.18297C23.4396 3.22505 23.4504 3.2724 23.4776 3.30922C23.4993 3.33553 23.5319 3.35657 23.5698 3.35657C23.6133 3.36183 23.6892 3.34079 23.7978 3.29344C24.0691 3.18297 24.2753 3.11984 24.4164 3.0988C24.5358 3.07776 24.6606 3.08828 24.7746 3.13562C24.8777 3.17771 24.9646 3.25136 25.0243 3.34079C25.1002 3.446 25.1436 3.57225 25.1491 3.70377C25.1545 3.84054 25.1165 3.97206 25.0405 4.08779C24.9428 4.22983 24.818 4.35082 24.6715 4.44551C24.373 4.64542 24.1288 4.72958 23.9334 4.69802C23.7218 4.66646 23.5481 4.56125 23.4233 4.40869Z" fill="#CAC4D0"/>
</g>
</g>
</g>
<defs>
<clipPath id="clip0_433_1868">
<rect width="30" height="10.8" fill="white" transform="translate(0.5 0.600006)"/>
</clipPath>
</defs>
</svg>
